<?xml version="1.0" encoding="utf-8"?>
<!-- Generator: Adobe Illustrator 16.0.4, SVG Export Plug-In . SVG Version: 6.00 Build 0)  -->
<!DOCTYPE svg PUBLIC "-//W3C//DTD SVG 1.1//EN" "http://www.w3.org/Graphics/SVG/1.1/DTD/svg11.dtd">
<svg version="1.1" id="Layer_1" xmlns="http://www.w3.org/2000/svg" xmlns:xlink="http://www.w3.org/1999/xlink" x="0px" y="0px"
	 width="800px" height="424.076px" viewBox="0 0 800 424.076" enable-background="new 0 0 800 424.076" xml:space="preserve">
<path fill="#1A1A1A" d="M34.437,351.59c16.624,0,25.022,8.811,25.022,8.811l-2.595,3.201c0,0-8.307-7.904-22.326-7.904
	c-17.221,0-30.335,13.506-30.335,31.629c0,18.219,13.014,32.643,30.635,32.643c15.02,0,23.728-9.514,23.728-9.514l2.702,3.015
	c0,0-9.409,10.606-26.43,10.606c-20.422,0-35.141-16.425-35.141-36.75C-0.303,367.005,14.719,351.59,34.437,351.59L34.437,351.59z"
	/>
<path fill="#1A1A1A" d="M87.863,352.795h20.521c6.513,0,9.823,0.694,12.612,2.1c5.817,2.909,9.723,8.81,9.723,16.819
	c0,10.005-5.8,17.521-14.02,19.331v0.194c0,0,0.705,0.797,1.598,2.501l15.73,29.128h-5.116l-16.614-31.033H92.171v31.033h-4.308
	V352.795L87.863,352.795z M111.191,387.833c9.213,0,15.011-6.604,15.011-16.119c0-6.206-3.097-11.212-8.204-13.519
	c-2.002-0.896-4.199-1.409-9.81-1.409H92.171v31.047H111.191L111.191,387.833z"/>
<path fill="#1A1A1A" d="M190.559,351.59c19.508,0,35.432,15.626,35.432,35.736c0,20.628-15.923,36.75-35.432,36.75
	c-19.525,0-35.449-16.122-35.449-36.75C155.11,367.216,171.033,351.59,190.559,351.59L190.559,351.59z M190.559,419.969
	c17.116,0,30.936-14.21,30.936-32.643c0-17.916-13.82-31.629-30.936-31.629c-17.123,0-30.943,13.713-30.943,31.629
	C159.615,405.759,173.436,419.969,190.559,419.969L190.559,419.969z"/>
<path fill="#1A1A1A" d="M287.225,358.896c0,0-1.398,6.611-2.704,11.116l-14.814,52.855h-5.405l-18.416-70.073h4.505l14.811,57.058
	c0.903,3.413,1.703,7.517,1.703,7.517h0.204c0.102,0,0.9-4.002,1.909-7.517l16.014-57.058h4.808l16.003,57.058
	c1.004,3.515,1.811,7.517,1.911,7.517h0.199c0,0,0.799-4.104,1.688-7.517l15.331-57.058h4.502l-18.923,70.073h-5.402l-14.814-52.855
	c-1.307-4.505-2.717-11.116-2.717-11.116h-0.181H287.225L287.225,358.896z"/>
<path fill="#1A1A1A" d="M354.356,352.795h22.029c20.83,0,34.948,12.821,34.948,35.038c0,22.319-14.118,35.035-34.948,35.035h-22.029
	V352.795L354.356,352.795z M375.682,418.87c18.628,0,31.147-10.916,31.147-31.037c0-20.019-12.519-31.047-31.147-31.047h-17.011
	v62.084H375.682L375.682,418.87z"/>
<path fill="#1A1A1A" d="M437.523,407.25c0,0,7.513,7.615,18.021,7.615c6.598,0,12.209-3.706,12.209-10.416
	c0-15.316-34.246-12.012-34.246-33.735c0-11.002,9.518-19.72,22.836-19.72c13.125,0,20.02,7.108,20.02,7.108l-4.502,8.205
	c0,0-6.507-6.108-15.518-6.108c-7.516,0-12.818,4.719-12.818,10.313c0,14.625,34.249,10.716,34.249,33.641
	c0,10.909-8.428,19.923-22.424,19.923c-15.023,0-23.435-9.316-23.435-9.316L437.523,407.25L437.523,407.25z"/>
<polygon fill="#1A1A1A" points="517.082,360.798 492.863,360.798 492.863,352.192 551.229,352.192 551.229,360.798 527.004,360.798 
	527.004,422.868 517.082,422.868 517.082,360.798 "/>
<path fill="#1A1A1A" d="M571.316,352.192h21.631c7.408,0,10.515,0.603,13.217,1.593c7.207,2.709,11.916,9.816,11.916,19.137
	c0,9.001-5.002,16.613-12.726,19.114v0.2c0,0,0.81,0.908,2.109,3.216l15.01,27.416h-11.205l-14.908-28.131h-15.135v28.131h-9.909
	V352.192L571.316,352.192z M595.448,386.135c7.714,0,12.52-4.906,12.52-12.821c0-5.206-1.995-8.915-5.602-10.902
	c-1.919-1.008-4.212-1.613-9.715-1.613h-11.426v25.337H595.448L595.448,386.135z"/>
<polygon fill="#1A1A1A" points="645.468,352.192 655.39,352.192 655.39,422.868 645.468,422.868 645.468,352.192 "/>
<polygon fill="#1A1A1A" points="684.6,352.192 694.516,352.192 694.516,381.923 705.03,381.923 722.854,352.192 733.773,352.192 
	713.244,385.74 713.244,385.931 735.07,422.868 723.852,422.868 705.03,390.446 694.516,390.446 694.516,422.868 684.6,422.868 
	684.6,352.192 "/>
<polygon fill="#1A1A1A" points="756.948,352.192 797.999,352.192 797.999,360.798 766.863,360.798 766.863,382.937 792.2,382.937 
	792.2,391.532 766.863,391.532 766.863,414.263 799.697,414.263 799.697,422.868 756.948,422.868 756.948,352.192 "/>
<path fill="#1A1A1A" d="M511.724,244.147c-8.342-0.829-23.151-2.89-41.68,6.45c-18.521,9.34-25.811,9.745-34.9,8.773
	c2.669,4.891,8.086,11.602,25.116,12.796c17.021,1.201,25.163,1.728,16.205,22.94c0.207-6.407-1.29-18.797-18.192-16.622
	c-16.898,2.179-20.848,17.386-2.718,24.981c-5.895,1.185-18.391,1.893-27.315-21.46c-6.184,2.686-15.714,8.076-32.995-5.272
	c6.016,2.179,13.466,2.313,13.466,2.313c-15.344-7.319-29.993-20.937-39.386-33.811c7.444,5.545,15.66,11.067,23.965,12.104
	c-9.814-11.976-32.513-35.92-60.289-60.525c17.86,11.656,39.407,30.094,74.663,25.951
	C442.931,218.62,466.635,210.541,511.724,244.147L511.724,244.147z"/>
<path fill="#1A1A1A" d="M360.793,235.832c-22.12-9.58-26.856-11.506-55.281-18.732c-28.435-7.224-56.402-22.255-75.097-45.716
	c13.187,9.657,40.104,29.085,67.749,26.982c-4.206-6.152-11.949-10.946-21.218-15.778
	C287.424,185.095,319.043,193.183,360.793,235.832L360.793,235.832z"/>
<path fill="#D41D16" d="M312.65,153.991c-5.705-16.357-15.987-37.297-64.771-68.415C224.119,69.897,189.24,50.208,143.315,0
	c3.283,13.529,17.794,48.726,90.914,94.417C258.25,110.806,289.25,120.919,312.65,153.991L312.65,153.991z"/>
<path fill="#1A1A1A" d="M315.667,177.699c-6.004-13.843-18.062-31.603-65.322-56.961c-21.791-12.206-59.021-30.988-92.501-66.696
	c3.039,12.894,18.579,41.211,85.454,76.575C261.818,140.822,293.128,150.392,315.667,177.699L315.667,177.699z"/>
<path fill="#D41D16" d="M361.501,106.143c-92.117-26.357-128.751-59.622-157.089-94.45c12.938,40.082,43.806,54.424,76.774,81.337
	c32.971,26.915,34.848,41.375,44.558,57.275c21.638,35.42,25.079,41.273,46.552,56.739c25.309,16.789,55.917,5.429,89.496,10.694
	c33.57,5.259,61.319,30.849,67.355,40.699c7.042-12.556-9.774-30.649-14.316-35.19c2.426-16.45-36.467-23.678-51.196-29.306
	c-2.89-1.106-10.048-2.763-3.838-17.523C468.165,156.046,476.883,138.321,361.501,106.143L361.501,106.143z M494.443,214.217
	c17.468,2.639,16.586,6.345,16.777,12.726C503.789,218.827,494.443,214.217,494.443,214.217L494.443,214.217z"/>
</svg>
